# xmcd CD database file
# Copyright (C) 1996 Ti Kan
#
# Track frame offsets:
# 	150
# 	19242
# 	35187
# 	54940
# 	76562
# 	89297
# 	106562
# 	127027
# 	143675
# 	165175
#
# Disc length: 2382 seconds
#
# Revision: 1
# Processed by: cddbd v1.5.2PL0 Copyright (c) Steve Scherf et al.
# Submitted via: DiscPlay 3.3.1
#
DISCID=6c094c0a
DTITLE=Country Line Dancing - The Best of Today's Country Line Dance Fa
DTITLE=vorites
DYEAR=1995
DGENRE=Country
TTITLE0=Achy Breaky Heart
TTITLE1=Chattahoochee
TTITLE2=Swingin'
TTITLE3=One More Last Chance
TTITLE4=Born To Boogie
TTITLE5=Guitars, Cadillacs
TTITLE6=Trashy Women
TTITLE7=Down At The Twist and Shout
TTITLE8=God Bless Texas
TTITLE9=All My Rowdy Friends (Are Coming Over Tonight)
EXTD=
EXTT0=
EXTT1=
EXTT2=
EXTT3=
EXTT4=
EXTT5=
EXTT6=
EXTT7=
EXTT8=
EXTT9=
PLAYORDER=
